PathFileType	4	(X/Y/Z)	C:/Users/opensim2020/Desktop/walking_exp_matlab/subject06_walking23_straight_01.trc	
DataRate	CameraRate	NumFrames	NumMarkers	Units	OrigDataRate	OrigDataStartFrame	OrigNumFrames	
100.00	100.00	7	45	mm	100.00	817	106	
Frame#	Time	LFHD			RFHD			LBHD			RBHD			C7			T10			CLAV			STRN			RBAK			LSHO			LUPA			LELB			LFRM			LWRA			LWRB			LFIN			RSHO			RUPA			RELB			RFRM			RWRA			RWRB			RFIN			LASI			RASI			LPSI			RPSI			LTHI			LKNE			LTIB			LANK			LHEE			LTOE			RTHI			RKNE			RTIB			RANK			RHEE			RTOE			*39			*40			*41			*42			*43			*44			
		X1	Y1	Z1	X2	Y2	Z2	X3	Y3	Z3	X4	Y4	Z4	X5	Y5	Z5	X6	Y6	Z6	X7	Y7	Z7	X8	Y8	Z8	X9	Y9	Z9	X10	Y10	Z10	X11	Y11	Z11	X12	Y12	Z12	X13	Y13	Z13	X14	Y14	Z14	X15	Y15	Z15	X16	Y16	Z16	X17	Y17	Z17	X18	Y18	Z18	X19	Y19	Z19	X20	Y20	Z20	X21	Y21	Z21	X22	Y22	Z22	X23	Y23	Z23	X24	Y24	Z24	X25	Y25	Z25	X26	Y26	Z26	X27	Y27	Z27	X28	Y28	Z28	X29	Y29	Z29	X30	Y30	Z30	X31	Y31	Z31	X32	Y32	Z32	X33	Y33	Z33	X34	Y34	Z34	X35	Y35	Z35	X36	Y36	Z36	X37	Y37	Z37	X38	Y38	Z38	X39	Y39	Z39	X40	Y40	Z40	X41	Y41	Z41	X42	Y42	Z42	X43	Y43	Z43	X44	Y44	Z44	X45	Y45	Z45	

80	0.790	1348.75232	219.46486	1632.69287	1480.95105	228.51414	1630.98633	1362.19702	84.99548	1582.79895	1491.42456	95.33735	1586.03418	1423.99683	84.56131	1425.31531	1438.66101	54.68849	1094.68164	1428.27979	195.78578	1349.60693	1431.31677	239.77364	1175.79321	1508.36316	12.35964	1256.03638	1264.35828	138.52585	1374.07397	1198.99109	90.50767	1178.15381	1193.96313	54.05484	1071.09253	1172.76318	32.66376	922.41968	1213.82043	58.37280	794.28040	1176.78271	-1.95091	808.44720	1180.59424	8.20642	717.00409	1587.53564	146.38515	1389.03003	1687.93665	95.29070	1202.00964	1709.04565	103.91899	1083.96216	1721.37354	160.96346	982.26001	1674.76587	271.30759	889.51434	1718.44617	228.41383	863.72418	1711.28906	296.15485	814.95966	1348.94629	251.21359	945.97583	1563.02649	217.22336	940.29944	1351.83459	89.38206	967.07153	1518.37036	71.13116	963.70282	1284.36230	266.49689	641.57489	1324.00122	320.44925	491.90662	1338.59607	327.56732	234.32822	1390.57068	339.17874	67.08245	1436.69336	297.30179	55.50473	1399.65686	481.53552	43.26439	1618.97913	123.13132	604.51190	1610.67493	114.45087	476.55600	1572.02051	-90.16413	316.26599	1508.08862	-231.64267	210.36818	1457.34399	-254.79208	233.88396	1506.33081	-209.87273	52.28520	1412.11169	124.59222	1678.22839															 
81	0.800	1347.50781	233.82777	1634.22974	1479.75073	242.67644	1633.12427	1360.98914	99.70532	1583.40662	1490.16187	109.82681	1587.21033	1422.80505	99.84525	1426.29309	1438.87329	70.23080	1096.16199	1428.04883	211.31042	1351.00928	1431.36353	255.46614	1177.10437	1507.29858	27.72602	1257.11487	1263.76538	155.39223	1374.97510	1197.94861	109.48812	1178.55505	1192.33716	73.77737	1071.35303	1170.85425	54.12138	922.44568	1212.28369	80.74903	794.56927	1174.42920	20.63891	808.22394	1178.74219	31.72642	716.78253	1586.88708	161.05286	1390.69556	1686.58972	108.28318	1203.87476	1707.15417	116.13701	1085.35693	1720.30212	170.51178	981.84119	1674.76855	278.55252	885.56134	1718.09045	234.36906	861.22974	1711.91333	300.69553	810.43518	1347.75952	266.31531	947.86139	1562.33728	233.17206	941.05988	1352.71704	103.96994	968.48657	1519.32886	86.89448	963.82208	1284.37354	281.00070	643.12750	1324.78333	333.50778	492.94345	1339.34119	335.91925	234.73201	1391.23169	340.27786	67.33129	1436.97278	297.93854	55.99980	1400.45325	482.63083	42.42137	1619.70752	146.25780	603.92358	1611.63721	141.28188	475.96945	1574.59412	-63.90491	319.48764	1510.83716	-208.00504	217.23849	1460.19275	-227.90587	243.34604	1506.25867	-199.45755	56.63553	1410.57178	138.40269	1679.31335															 
82	0.810	1346.35864	248.15715	1635.94116	1478.55981	256.92490	1635.53357	1359.86316	114.43073	1584.26624	1489.11926	124.35075	1588.71057	1421.96851	115.11570	1428.01733	1438.79309	85.50540	1097.95911	1427.91248	226.68951	1352.78955	1431.36646	270.82092	1178.68494	1506.57251	42.80452	1258.80823	1263.17993	172.13745	1376.28394	1197.17957	128.59370	1179.00281	1190.59717	94.01246	1071.60913	1168.94543	76.30254	922.45770	1210.72559	103.86856	794.84448	1172.13000	44.06062	807.80688	1176.66028	56.24360	716.53003	1586.48926	175.80643	1392.44739	1685.45105	121.40858	1205.62610	1705.36621	128.22267	1086.65125	1719.20374	179.85321	981.38721	1675.06921	285.22330	881.47186	1717.90942	239.88481	858.74518	1712.60535	304.59641	805.82611	1346.40417	280.97601	949.73492	1561.77307	248.78181	942.11920	1353.43091	118.45215	969.73914	1520.11206	102.19810	964.22858	1284.69214	294.40570	643.90167	1325.68689	345.51447	493.39056	1340.81226	342.29193	234.69218	1391.77942	341.28186	67.68990	1437.30139	298.43738	56.50253	1401.30359	483.51010	41.84611	1619.98633	169.65187	603.68677	1611.94727	168.57834	475.99817	1577.19250	-36.04917	321.41901	1513.91211	-182.65358	222.72411	1463.53967	-199.66829	250.60255	1506.56396	-185.11168	60.80725	1409.02136	152.34908	1680.71094															 
83	0.820	1345.32764	262.23053	1637.75146	1477.39050	271.28961	1638.14771	1358.93213	129.05640	1585.49487	1488.15051	138.93446	1590.60486	1421.17810	130.57063	1430.24353	1438.38062	100.53064	1100.04053	1427.75110	241.92610	1354.68298	1431.29883	285.80133	1180.38794	1506.06799	57.50153	1261.12390	1262.73462	188.64439	1377.80066	1196.07446	147.65471	1179.70325	1189.04663	114.88398	1071.99854	1167.12292	99.01347	922.63190	1208.77783	128.26505	795.40240	1169.77246	68.55573	807.56451	1174.26563	81.90191	716.48517	1586.17676	190.70247	1394.27722	1684.39783	134.74812	1207.30530	1703.67957	140.16656	1087.93481	1718.18628	189.07362	980.97388	1675.17908	291.68744	877.51367	1717.74023	244.95749	856.31525	1713.27942	307.91763	801.21686	1345.09155	295.09756	951.59814	1561.31226	264.13962	943.62115	1353.93481	132.61887	971.21588	1520.69153	117.14689	965.09015	1284.93030	306.34604	643.99591	1326.44092	356.19858	493.24579	1341.80750	346.36240	234.72913	1392.16577	341.68393	67.87716	1437.43542	298.51245	56.66452	1401.88013	484.03845	41.52709	1619.76196	193.01419	604.08795	1611.72656	195.75012	476.70627	1579.91235	-7.13926	321.73752	1517.06726	-156.67542	226.99979	1466.90247	-173.75266	255.64565	1508.11816	-163.67072	65.04202	1407.65417	166.39050	1682.39136															 
84	0.830	1344.23047	276.89084	1639.86597	1476.36011	285.67358	1640.82800	1358.14624	143.73763	1587.00366	1487.30994	153.60863	1592.73987	1420.60486	146.00951	1432.80579	1437.82922	115.43015	1102.41553	1427.73328	256.95911	1356.80750	1431.16724	300.55734	1182.36523	1505.49097	72.19684	1263.80005	1262.37927	204.99995	1379.59595	1195.48596	167.09085	1180.55188	1187.28076	135.58217	1072.55994	1165.31506	122.57564	922.96808	1208.50195	151.47635	796.27301	1167.38574	93.64539	807.53333	1171.81897	108.46362	716.71619	1585.98975	205.61293	1396.20532	1683.42151	148.25800	1209.06311	1702.27637	152.22264	1089.25684	1717.15906	198.05122	980.53522	1675.35620	297.48822	873.27820	1717.61108	249.61745	853.96436	1714.26147	310.67111	796.81464	1344.07947	308.93317	953.55743	1560.90771	279.17322	945.47601	1354.16296	146.98561	972.86133	1521.07251	131.87891	966.46991	1285.82739	317.48227	644.19843	1326.87671	365.39606	492.72061	1341.75671	349.11526	234.84494	1392.50391	341.76566	68.01321	1437.73621	298.41284	56.87208	1402.07739	484.27377	41.28573	1619.12646	216.16229	605.09033	1611.13586	222.50545	478.08478	1582.86646	21.33440	321.31802	1519.77075	-131.21394	230.57242	1470.11804	-151.27818	258.85855	1511.68872	-131.83658	69.46701	1406.42285	180.66852	1684.31616															 
85	0.840	1343.41638	291.32419	1641.91187	1475.48120	300.14203	1643.46619	1357.49817	158.39474	1588.75195	1486.69019	168.18898	1594.99805	1420.12476	161.25789	1435.28418	1437.20410	129.98254	1104.95093	1427.68274	271.85413	1359.05273	1431.09717	315.17563	1184.45667	1504.90259	86.61250	1266.75928	1262.09241	220.94366	1381.69641	1194.52148	186.34135	1181.91174	1185.99524	157.08412	1073.32507	1163.60181	146.63545	923.63654	1206.22998	177.51677	797.59558	1165.02417	119.48643	807.75134	1169.24402	136.14442	717.14929	1585.82043	220.42557	1398.23657	1682.48804	161.88499	1210.89563	1700.95093	164.42987	1090.61377	1716.08411	206.75337	980.14777	1675.67603	302.60315	868.97406	1717.42639	253.89543	851.83289	1714.87024	312.76715	792.40479	1343.43335	322.67957	955.58575	1560.60083	293.88080	947.86041	1354.15735	161.28960	974.74689	1521.19360	146.19519	968.37891	1286.31128	328.22281	644.74512	1327.13611	373.36206	492.30603	1341.78223	351.26389	235.33009	1392.74841	341.74765	68.23869	1437.92249	298.24014	56.81374	1402.27454	484.18951	41.03901	1618.17542	238.84676	606.66077	1610.05054	248.92838	480.00436	1584.39990	49.02998	321.99390	1522.74268	-104.72516	232.92033	1473.71045	-129.57504	259.64505	1515.55542	-94.67698	72.22276	1405.38367	194.99895	1686.38342															 
86	0.850	1342.74438	305.87079	1644.10706	1474.73743	314.70358	1646.06970	1356.96582	173.05841	1590.70325	1486.11572	182.88336	1597.33020	1419.71594	175.88712	1437.64783	1436.68335	144.36458	1107.50708	1427.52979	286.55563	1361.30615	1431.03345	329.63806	1186.75073	1504.07568	101.11515	1269.59851	1261.89124	236.48222	1384.04529	1194.08252	205.70193	1183.42041	1184.49170	178.13065	1074.55078	1162.02271	171.14128	924.66547	1206.13477	202.33154	799.03668	1162.65833	146.15648	808.37018	1166.75598	164.26410	718.51624	1585.57629	235.11594	1400.40344	1681.59448	175.54149	1212.90796	1699.70483	176.72395	1092.08862	1715.07751	215.63477	979.98022	1675.86633	307.57697	865.05951	1717.31787	257.72037	849.95007	1715.40942	314.37360	788.24133	1343.15356	336.69116	957.75726	1560.51514	308.28101	950.54559	1354.01184	175.54361	977.00262	1521.00220	160.72578	970.51904	1286.97620	338.36093	645.52722	1327.21216	380.08594	491.98080	1342.11731	353.06558	235.90616	1392.94519	341.98730	68.57836	1437.97192	298.15320	56.92440	1402.36414	484.32974	40.95570	1617.04590	261.32104	608.73029	1608.41406	275.35556	482.56091	1584.77051	76.80397	324.85284	1525.59058	-76.75423	233.82335	1477.64648	-106.01978	258.16602	1519.96228	-55.32822	74.45036	1404.58228	209.39275	1688.60034															 
